# xmcd CD database file
#
# Track frame offsets:
#	150
#	20427
#	45587
#	65613
#	91717
#	111074
#	129055
#	152780
#	170744
#	192699
#	204233
#	217342
#	230719
#
# Disc length: 3268 seconds
#
# Revision: 1
# Processed by: cddbd v1.5.2PL0 Copyright (c) Steve Scherf et al.
# Submitted via: CDex 1.51
#
DISCID=b60cc20d
DTITLE=William Clarke and Junior Watson - Double Dealin'
DYEAR=1983
DGENRE=Blues
TTITLE0=Slow Down Baby
TTITLE1=Musta Been Jelly
TTITLE2=All Night Long
TTITLE3=One Room Country Shack
TTITLE4=Celebrate Life
TTITLE5=When I Get Drunk
TTITLE6=Groovin' With Mr. K
TTITLE7=I'm A Wild Man
TTITLE8=Junior's Jump
TTITLE9=Please Be Mine
TTITLE10=Yeah Yeah
TTITLE11=Boogie Woogie Woman
TTITLE12=My Mind Is Workin' Overtime
EXTD=YEAR: 1983
EXTT0=
EXTT1=
EXTT2=
EXTT3=
EXTT4=
EXTT5=
EXTT6=
EXTT7=
EXTT8=
EXTT9=
EXTT10=
EXTT11=
EXTT12=
PLAYORDER=
